<mxfile host="app.diagrams.net" agent="Mozilla/5.0 (Windows NT 10.0; Win64; x64) AppleWebKit/537.36 (KHTML, like Gecko) Chrome/139.0.0.0 Safari/537.36" version="28.2.0">
  <diagram name="Page-1" id="ja6Jv6K6E00j63stfY1Q">
    <mxGraphModel dx="1871" dy="1814" grid="0" gridSize="10" guides="1" tooltips="1" connect="1" arrows="1" fold="1" page="0" pageScale="1" pageWidth="827" pageHeight="1169" math="0" shadow="0">
      <root>
        <mxCell id="0" />
        <mxCell id="1" parent="0" />
        <mxCell id="EDjaMZPSDxmGKB74mhdC-24" value="US-001:Â System automatically reconciles full payments" style="swimlane;childLayout=stackLayout;resizeParent=1;resizeParentMax=0;startSize=20;horizontal=0;horizontalStack=1;" vertex="1" parent="1">
          <mxGeometry x="-940" y="-900" width="642.5" height="560" as="geometry" />
        </mxCell>
        <mxCell id="EDjaMZPSDxmGKB74mhdC-25" value="System / IT " style="swimlane;startSize=20;" vertex="1" parent="EDjaMZPSDxmGKB74mhdC-24">
          <mxGeometry x="20" width="402.5" height="560" as="geometry">
            <mxRectangle x="20" width="32" height="560" as="alternateBounds" />
          </mxGeometry>
        </mxCell>
        <mxCell id="EDjaMZPSDxmGKB74mhdC-8" style="edgeStyle=none;curved=1;rounded=0;orthogonalLoop=1;jettySize=auto;html=1;exitX=0.5;exitY=1;exitDx=0;exitDy=0;entryX=0.5;entryY=0;entryDx=0;entryDy=0;fontSize=12;startSize=8;endSize=8;" edge="1" parent="EDjaMZPSDxmGKB74mhdC-25" source="EDjaMZPSDxmGKB74mhdC-1" target="EDjaMZPSDxmGKB74mhdC-2">
          <mxGeometry relative="1" as="geometry" />
        </mxCell>
        <mxCell id="EDjaMZPSDxmGKB74mhdC-1" value="Receive daily billing &amp;amp; payments files" style="ellipse;whiteSpace=wrap;html=1;" vertex="1" parent="EDjaMZPSDxmGKB74mhdC-25">
          <mxGeometry x="35" y="50" width="120" height="80" as="geometry" />
        </mxCell>
        <mxCell id="EDjaMZPSDxmGKB74mhdC-9" style="edgeStyle=none;curved=1;rounded=0;orthogonalLoop=1;jettySize=auto;html=1;exitX=0.5;exitY=1;exitDx=0;exitDy=0;entryX=0.5;entryY=0;entryDx=0;entryDy=0;fontSize=12;startSize=8;endSize=8;" edge="1" parent="EDjaMZPSDxmGKB74mhdC-25" source="EDjaMZPSDxmGKB74mhdC-2" target="EDjaMZPSDxmGKB74mhdC-3">
          <mxGeometry relative="1" as="geometry" />
        </mxCell>
        <mxCell id="EDjaMZPSDxmGKB74mhdC-2" value="System ingests billing &amp;amp; payment data" style="rounded=0;whiteSpace=wrap;html=1;" vertex="1" parent="EDjaMZPSDxmGKB74mhdC-25">
          <mxGeometry x="35" y="160" width="120" height="60" as="geometry" />
        </mxCell>
        <mxCell id="EDjaMZPSDxmGKB74mhdC-10" style="edgeStyle=none;curved=1;rounded=0;orthogonalLoop=1;jettySize=auto;html=1;exitX=0.5;exitY=1;exitDx=0;exitDy=0;entryX=0.5;entryY=0;entryDx=0;entryDy=0;fontSize=12;startSize=8;endSize=8;" edge="1" parent="EDjaMZPSDxmGKB74mhdC-25" source="EDjaMZPSDxmGKB74mhdC-3" target="EDjaMZPSDxmGKB74mhdC-4">
          <mxGeometry relative="1" as="geometry" />
        </mxCell>
        <mxCell id="EDjaMZPSDxmGKB74mhdC-3" value="Auto-match payments to invoices" style="rounded=0;whiteSpace=wrap;html=1;" vertex="1" parent="EDjaMZPSDxmGKB74mhdC-25">
          <mxGeometry x="35" y="240" width="120" height="60" as="geometry" />
        </mxCell>
        <mxCell id="EDjaMZPSDxmGKB74mhdC-4" value="All invoices matched?" style="rhombus;whiteSpace=wrap;html=1;" vertex="1" parent="EDjaMZPSDxmGKB74mhdC-25">
          <mxGeometry x="55" y="320" width="80" height="80" as="geometry" />
        </mxCell>
        <mxCell id="EDjaMZPSDxmGKB74mhdC-5" value="Close matched invoices" style="ellipse;whiteSpace=wrap;html=1;" vertex="1" parent="EDjaMZPSDxmGKB74mhdC-25">
          <mxGeometry x="35" y="450" width="120" height="80" as="geometry" />
        </mxCell>
        <mxCell id="EDjaMZPSDxmGKB74mhdC-6" value="Flag unmatched invoices" style="rounded=0;whiteSpace=wrap;html=1;" vertex="1" parent="EDjaMZPSDxmGKB74mhdC-25">
          <mxGeometry x="195" y="330" width="125" height="60" as="geometry" />
        </mxCell>
        <mxCell id="EDjaMZPSDxmGKB74mhdC-11" value="" style="endArrow=classic;html=1;rounded=0;fontSize=12;startSize=8;endSize=8;curved=1;entryX=0;entryY=0.5;entryDx=0;entryDy=0;" edge="1" parent="EDjaMZPSDxmGKB74mhdC-25" target="EDjaMZPSDxmGKB74mhdC-6">
          <mxGeometry relative="1" as="geometry">
            <mxPoint x="135" y="359.5" as="sourcePoint" />
            <mxPoint x="205" y="360" as="targetPoint" />
          </mxGeometry>
        </mxCell>
        <mxCell id="EDjaMZPSDxmGKB74mhdC-12" value="No" style="edgeLabel;resizable=0;html=1;;align=center;verticalAlign=middle;" connectable="0" vertex="1" parent="EDjaMZPSDxmGKB74mhdC-11">
          <mxGeometry relative="1" as="geometry" />
        </mxCell>
        <mxCell id="EDjaMZPSDxmGKB74mhdC-16" value="" style="endArrow=classic;html=1;rounded=0;fontSize=12;startSize=8;endSize=8;curved=1;entryX=0.5;entryY=0;entryDx=0;entryDy=0;" edge="1" parent="EDjaMZPSDxmGKB74mhdC-25" target="EDjaMZPSDxmGKB74mhdC-5">
          <mxGeometry relative="1" as="geometry">
            <mxPoint x="95" y="400" as="sourcePoint" />
            <mxPoint x="255" y="400" as="targetPoint" />
          </mxGeometry>
        </mxCell>
        <mxCell id="EDjaMZPSDxmGKB74mhdC-17" value="Yes" style="edgeLabel;resizable=0;html=1;;align=center;verticalAlign=middle;" connectable="0" vertex="1" parent="EDjaMZPSDxmGKB74mhdC-16">
          <mxGeometry relative="1" as="geometry" />
        </mxCell>
        <mxCell id="EDjaMZPSDxmGKB74mhdC-31" value="" style="verticalLabelPosition=bottom;verticalAlign=top;html=1;shape=mxgraph.basic.frame;dx=10;whiteSpace=wrap;" vertex="1" parent="EDjaMZPSDxmGKB74mhdC-25">
          <mxGeometry x="195" y="422" width="125" height="125" as="geometry" />
        </mxCell>
        <mxCell id="EDjaMZPSDxmGKB74mhdC-32" value="&lt;span style=&quot;font-size: 12px; text-wrap-mode: wrap;&quot;&gt;Continue to US-002:&amp;nbsp;System flags partial payments&lt;/span&gt;" style="text;html=1;align=center;verticalAlign=middle;resizable=0;points=[];autosize=1;strokeColor=none;fillColor=none;fontSize=16;" vertex="1" parent="EDjaMZPSDxmGKB74mhdC-25">
          <mxGeometry x="112.5" y="465" width="290" height="31" as="geometry" />
        </mxCell>
        <mxCell id="EDjaMZPSDxmGKB74mhdC-35" style="edgeStyle=none;curved=1;rounded=0;orthogonalLoop=1;jettySize=auto;html=1;exitX=0.5;exitY=1;exitDx=0;exitDy=0;entryX=0.5;entryY=0;entryDx=0;entryDy=0;entryPerimeter=0;fontSize=12;startSize=8;endSize=8;" edge="1" parent="EDjaMZPSDxmGKB74mhdC-25" source="EDjaMZPSDxmGKB74mhdC-6" target="EDjaMZPSDxmGKB74mhdC-31">
          <mxGeometry relative="1" as="geometry" />
        </mxCell>
        <mxCell id="EDjaMZPSDxmGKB74mhdC-26" value="Billing Officer" style="swimlane;startSize=20;" vertex="1" parent="EDjaMZPSDxmGKB74mhdC-24">
          <mxGeometry x="422.5" width="220" height="560" as="geometry" />
        </mxCell>
        <mxCell id="EDjaMZPSDxmGKB74mhdC-29" value="Review flagged invoices" style="rounded=0;whiteSpace=wrap;html=1;" vertex="1" parent="EDjaMZPSDxmGKB74mhdC-26">
          <mxGeometry x="50" y="450" width="120" height="60" as="geometry" />
        </mxCell>
      </root>
    </mxGraphModel>
  </diagram>
</mxfile>
